<svg width="137px" height="30px" viewBox="0 0 157 30" version="1.1" xmlns="http://www.w3.org/2000/svg" xmlns:xlink="http://www.w3.org/1999/xlink">
  <g id="Main-Page" stroke="none" stroke-width="1" fill="none" fill-rule="evenodd">
    <g id="HelpCenter–MainPage-(D)" transform="translate(-137.000000, -40.000000)" fill="#373C50">
      <g id="Header">
        <g id="Top" transform="translate(135.000000, 30.000000)">
          <g id="Logotype" transform="translate(0.000000, 8.000000)">
            <path d="M2.16,3.76 L6.84,3.76 L6.84,11.68 L15.93,11.68 L15.93,3.76 L20.61,3.76 L20.61,25 L15.93,25 L15.93,15.82 L6.84,15.82 L6.84,25 L2.16,25 L2.16,3.76 Z M38.16,22.48 C37.4399964,23.4000046 36.5300055,24.1099975 35.43,24.61 C34.3299945,25.1100025 33.1900059,25.36 32.01,25.36 C30.8899944,25.36 29.8350049,25.1800018 28.845,24.82 C27.854995,24.4599982 26.9950037,23.9450034 26.265,23.275 C25.5349964,22.6049967 24.9600021,21.8000047 24.54,20.86 C24.1199979,19.9199953 23.91,18.8700058 23.91,17.71 C23.91,16.5499942 24.1199979,15.5000047 24.54,14.56 C24.9600021,13.6199953 25.5349964,12.8150034 26.265,12.145 C26.9950037,11.4749967 27.854995,10.9600018 28.845,10.6 C29.8350049,10.2399982 30.8899944,10.06 32.01,10.06 C33.0500052,10.06 33.9949958,10.2399982 34.845,10.6 C35.6950042,10.9600018 36.414997,11.4749967 37.005,12.145 C37.5950029,12.8150034 38.0499984,13.6199953 38.37,14.56 C38.6900016,15.5000047 38.85,16.5499942 38.85,17.71 L38.85,19.12 L28.41,19.12 C28.5900009,19.9800043 28.979997,20.6649975 29.58,21.175 C30.180003,21.6850026 30.9199956,21.94 31.8,21.94 C32.5400037,21.94 33.1649974,21.7750017 33.675,21.445 C34.1850025,21.1149984 34.6299981,20.6900026 35.01,20.17 L38.16,22.48 Z M34.35,16.06 C34.3700001,15.2999962 34.1200026,14.6500027 33.6,14.11 C33.0799974,13.5699973 32.4100041,13.3 31.59,13.3 C31.0899975,13.3 30.6500019,13.3799992 30.27,13.54 C29.8899981,13.7000008 29.5650013,13.9049988 29.295,14.155 C29.0249987,14.4050013 28.8150008,14.6949984 28.665,15.025 C28.5149992,15.3550017 28.4300001,15.6999982 28.41,16.06 L34.35,16.06 Z M41.64,2.32 L46.14,2.32 L46.14,25 L41.64,25 L41.64,2.32 Z M49.8,10.42 L53.94,10.42 L53.94,12.34 L54,12.34 C54.1800009,12.0799987 54.4149985,11.8150014 54.705,11.545 C54.9950014,11.2749987 55.334998,11.0300011 55.725,10.81 C56.1150019,10.5899989 56.5399977,10.4100007 57,10.27 C57.4600023,10.1299993 57.9499974,10.06 58.47,10.06 C59.5500054,10.06 60.5299956,10.2449982 61.41,10.615 C62.2900044,10.9850019 63.0449968,11.5049967 63.675,12.175 C64.3050031,12.8450033 64.7899983,13.6399954 65.13,14.56 C65.4700017,15.4800046 65.64,16.4899945 65.64,17.59 C65.64,18.6100051 65.4850015,19.5849953 65.175,20.515 C64.8649984,21.4450047 64.4250028,22.2699964 63.855,22.99 C63.2849971,23.7100036 62.5900041,24.2849979 61.77,24.715 C60.9499959,25.1450022 60.0200052,25.36 58.98,25.36 C58.0399953,25.36 57.165004,25.2150015 56.355,24.925 C55.5449959,24.6349985 54.8800026,24.1400035 54.36,23.44 L54.3,23.44 L54.3,31.84 L49.8,31.84 L49.8,10.42 Z M53.94,17.71 C53.94,18.8100055 54.2549968,19.6999966 54.885,20.38 C55.5150031,21.0600034 56.3999943,21.4 57.54,21.4 C58.6800057,21.4 59.5649968,21.0600034 60.195,20.38 C60.8250031,19.6999966 61.14,18.8100055 61.14,17.71 C61.14,16.6099945 60.8250031,15.7200034 60.195,15.04 C59.5649968,14.3599966 58.6800057,14.02 57.54,14.02 C56.3999943,14.02 55.5150031,14.3599966 54.885,15.04 C54.2549968,15.7200034 53.94,16.6099945 53.94,17.71 Z M87.06,21.64 C86.6999982,22.1800027 86.2550026,22.6899976 85.725,23.17 C85.1949973,23.6500024 84.5900034,24.0649983 83.91,24.415 C83.2299966,24.7650018 82.4950039,25.039999 81.705,25.24 C80.914996,25.440001 80.0800044,25.54 79.2,25.54 C77.6199921,25.54 76.1550067,25.2600028 74.805,24.7 C73.4549933,24.1399972 72.285005,23.365005 71.295,22.375 C70.3049951,21.3849951 69.5300028,20.2100068 68.97,18.85 C68.4099972,17.4899932 68.13,16.0000081 68.13,14.38 C68.13,12.7599919 68.4099972,11.2700068 68.97,9.91 C69.5300028,8.5499932 70.3049951,7.37500495 71.295,6.385 C72.285005,5.39499505 73.4549933,4.6200028 74.805,4.06 C76.1550067,3.4999972 77.6199921,3.22 79.2,3.22 C80.5200066,3.22 81.8399934,3.4799974 83.16,4 C84.4800066,4.5200026 85.6099953,5.379994 86.55,6.58 L84.66,7.99 C84.4399989,7.6499983 84.1400019,7.3100017 83.76,6.97 C83.3799981,6.6299983 82.9450024,6.3300013 82.455,6.07 C81.9649975,5.8099987 81.4400028,5.6000008 80.88,5.44 C80.3199972,5.2799992 79.7600028,5.2 79.2,5.2 C77.8399932,5.2 76.6200054,5.4499975 75.54,5.95 C74.4599946,6.4500025 73.5450038,7.1199958 72.795,7.96 C72.0449962,8.8000042 71.470002,9.77499445 71.07,10.885 C70.669998,11.9950056 70.47,13.1599939 70.47,14.38 C70.47,15.6000061 70.669998,16.7649945 71.07,17.875 C71.470002,18.9850056 72.0449962,19.9599958 72.795,20.8 C73.5450038,21.6400042 74.4599946,22.3099975 75.54,22.81 C76.6200054,23.3100025 77.8399932,23.56 79.2,23.56 C79.7600028,23.56 80.3149972,23.5100005 80.865,23.41 C81.4150027,23.3099995 81.9549973,23.1400012 82.485,22.9 C83.0150026,22.6599988 83.5149976,22.3350021 83.985,21.925 C84.4550024,21.514998 84.889998,21.0000031 85.29,20.38 L87.06,21.64 Z M100.89,16.9 C100.89,15.5599933 100.490004,14.4750042 99.69,13.645 C98.889996,12.8149958 97.7700072,12.4 96.33,12.4 C95.6899968,12.4 95.070003,12.5249987 94.47,12.775 C93.869997,13.0250012 93.3450023,13.3599979 92.895,13.78 C92.4449977,14.2000021 92.0850013,14.6799973 91.815,15.22 C91.5449986,15.7600027 91.41,16.3199971 91.41,16.9 L100.89,16.9 Z M91.35,18.52 C91.4100003,19.2200035 91.5799986,19.8799969 91.86,20.5 C92.1400014,21.1200031 92.5099977,21.6549978 92.97,22.105 C93.4300023,22.5550023 93.959997,22.9099987 94.56,23.17 C95.160003,23.4300013 95.8099965,23.56 96.51,23.56 C97.5700053,23.56 98.4849962,23.3150025 99.255,22.825 C100.025004,22.3349976 100.609998,21.7700032 101.01,21.13 L102.54,22.39 C101.699996,23.4500053 100.775005,24.2099977 99.765,24.67 C98.7549949,25.1300023 97.6700058,25.36 96.51,25.36 C95.4699948,25.36 94.5050045,25.1750019 93.615,24.805 C92.7249956,24.4349982 91.9600032,23.9200033 91.32,23.26 C90.6799968,22.5999967 90.1750019,21.8200045 89.805,20.92 C89.4349982,20.0199955 89.25,19.0400053 89.25,17.98 C89.25,16.9199947 89.4299982,15.9400045 89.79,15.04 C90.1500018,14.1399955 90.6499968,13.3600033 91.29,12.7 C91.9300032,12.0399967 92.6799957,11.5250019 93.54,11.155 C94.4000043,10.7849982 95.329995,10.6 96.33,10.6 C97.3900053,10.6 98.3399958,10.7899981 99.18,11.17 C100.020004,11.5500019 100.724997,12.0549969 101.295,12.685 C101.865003,13.3150032 102.299999,14.0549958 102.6,14.905 C102.900002,15.7550043 103.05,16.6599952 103.05,17.62 L103.05,18.52 L91.35,18.52 Z M108.54,10.96 C108.58,11.3400019 108.605,11.7149982 108.615,12.085 C108.625,12.4550019 108.63,12.8299981 108.63,13.21 L108.69,13.21 C108.910001,12.8299981 109.189998,12.4800016 109.53,12.16 C109.870002,11.8399984 110.249998,11.5650012 110.67,11.335 C111.090002,11.1049989 111.534998,10.9250007 112.005,10.795 C112.475002,10.6649994 112.939998,10.6 113.4,10.6 C115.200009,10.6 116.529996,11.0749953 117.39,12.025 C118.250004,12.9750048 118.68,14.3299912 118.68,16.09 L118.68,25 L116.7,25 L116.7,17.23 C116.7,15.6699922 116.430003,14.4750042 115.89,13.645 C115.349997,12.8149959 114.350007,12.4 112.89,12.4 C112.79,12.4 112.510002,12.4399996 112.05,12.52 C111.589998,12.6000004 111.105003,12.8199982 110.595,13.18 C110.084997,13.5400018 109.630002,14.0799964 109.23,14.8 C108.829998,15.5200036 108.63,16.5199936 108.63,17.8 L108.63,25 L106.65,25 L106.65,14.05 C106.65,13.6699981 106.635,13.1900029 106.605,12.61 C106.575,12.0299971 106.54,11.4800026 106.5,10.96 L108.54,10.96 Z M130.59,12.76 L126.54,12.76 L126.54,21.04 C126.54,21.5600026 126.59,21.9849983 126.69,22.315 C126.790001,22.6450017 126.929999,22.8999991 127.11,23.08 C127.290001,23.2600009 127.504999,23.3849996 127.755,23.455 C128.005001,23.5250003 128.279999,23.56 128.58,23.56 C128.920002,23.56 129.269998,23.5100005 129.63,23.41 C129.990002,23.3099995 130.319998,23.1800008 130.62,23.02 L130.71,24.85 C129.969996,25.1900017 129.080005,25.36 128.04,25.36 C127.659998,25.36 127.265002,25.3100005 126.855,25.21 C126.444998,25.1099995 126.070002,24.9200014 125.73,24.64 C125.389998,24.3599986 125.110001,23.9800024 124.89,23.5 C124.669999,23.0199976 124.56,22.3900039 124.56,21.61 L124.56,12.76 L121.59,12.76 L121.59,10.96 L124.56,10.96 L124.56,7 L126.54,7 L126.54,10.96 L130.59,10.96 L130.59,12.76 Z M144.21,16.9 C144.21,15.5599933 143.810004,14.4750042 143.01,13.645 C142.209996,12.8149958 141.090007,12.4 139.65,12.4 C139.009997,12.4 138.390003,12.5249987 137.79,12.775 C137.189997,13.0250012 136.665002,13.3599979 136.215,13.78 C135.764998,14.2000021 135.405001,14.6799973 135.135,15.22 C134.864999,15.7600027 134.73,16.3199971 134.73,16.9 L144.21,16.9 Z M134.67,18.52 C134.73,19.2200035 134.899999,19.8799969 135.18,20.5 C135.460001,21.1200031 135.829998,21.6549978 136.29,22.105 C136.750002,22.5550023 137.279997,22.9099987 137.88,23.17 C138.480003,23.4300013 139.129997,23.56 139.83,23.56 C140.890005,23.56 141.804996,23.3150025 142.575,22.825 C143.345004,22.3349976 143.929998,21.7700032 144.33,21.13 L145.86,22.39 C145.019996,23.4500053 144.095005,24.2099977 143.085,24.67 C142.074995,25.1300023 140.990006,25.36 139.83,25.36 C138.789995,25.36 137.825004,25.1750019 136.935,24.805 C136.044996,24.4349982 135.280003,23.9200033 134.64,23.26 C133.999997,22.5999967 133.495002,21.8200045 133.125,20.92 C132.754998,20.0199955 132.57,19.0400053 132.57,17.98 C132.57,16.9199947 132.749998,15.9400045 133.11,15.04 C133.470002,14.1399955 133.969997,13.3600033 134.61,12.7 C135.250003,12.0399967 135.999996,11.5250019 136.86,11.155 C137.720004,10.7849982 138.649995,10.6 139.65,10.6 C140.710005,10.6 141.659996,10.7899981 142.5,11.17 C143.340004,11.5500019 144.044997,12.0549969 144.615,12.685 C145.185003,13.3150032 145.619999,14.0549958 145.92,14.905 C146.220002,15.7550043 146.37,16.6599952 146.37,17.62 L146.37,18.52 L134.67,18.52 Z M150.18,15.34 C150.18,14.7199969 150.165,14.0900032 150.135,13.45 C150.105,12.8099968 150.08,11.9800051 150.06,10.96 L152.01,10.96 L152.01,13.57 L152.07,13.57 C152.210001,13.1899981 152.409999,12.8250018 152.67,12.475 C152.930001,12.1249983 153.244998,11.8100014 153.615,11.53 C153.985002,11.2499986 154.414998,11.0250009 154.905,10.855 C155.395002,10.6849992 155.949997,10.6 156.57,10.6 C157.130003,10.6 157.619998,10.6599994 158.04,10.78 L157.65,12.73 C157.389999,12.6299995 157.010003,12.58 156.51,12.58 C155.749996,12.58 155.100003,12.7249986 154.56,13.015 C154.019997,13.3050015 153.570002,13.6749978 153.21,14.125 C152.849998,14.5750023 152.585001,15.0599974 152.415,15.58 C152.244999,16.1000026 152.16,16.5999976 152.16,17.08 L152.16,25 L150.18,25 L150.18,15.34 Z" id="HelpCenter"></path>
          </g>
        </g>
      </g>
    </g>
  </g>
</svg>